<?xml version="1.0" encoding="utf-8"?>
<!-- Generator: Adobe Illustrator 26.4.1, SVG Export Plug-In . SVG Version: 6.00 Build 0)  -->
<svg version="1.1" id="Ebene_1" xmlns="http://www.w3.org/2000/svg" xmlns:xlink="http://www.w3.org/1999/xlink" x="0px" y="0px"
	 viewBox="0 0 200 60" style="enable-background:new 0 0 200 60;" xml:space="preserve">
<style type="text/css">
	.st0{fill:#033572;}
	.st1{fill-rule:evenodd;clip-rule:evenodd;}
</style>
<g>
	<polygon class="st0" points="15.6,15.8 28.4,15.8 20.4,29 22.5,29 30.4,15.8 43.2,15.8 35.3,29 44.2,29 40.6,34.9 31.7,34.9 
		38.7,44.4 25.9,44.4 19,34.9 16.8,34.9 23.7,44.4 11,44.4 4.1,34.9 	"/>
	<polygon points="59.5,39.9 63.4,39.9 63.4,32.2 70.7,32.2 70.7,39.9 74.6,39.9 74.6,22 70.7,22 70.7,28.9 63.4,28.9 63.4,22 
		59.5,22 	"/>
	<path class="st1" d="M84.1,34.9c0,0.8-0.1,2.9-2.9,2.9c-1.1,0-2.1-0.3-2.1-1.7c0-1.3,1-1.7,2.1-1.9c1.1-0.2,2.3-0.2,2.9-0.7V34.9
		L84.1,34.9z M79.5,30.9c0.1-1.4,1-1.9,2.3-1.9c1.3,0,2.3,0.2,2.3,1.7c0,1.5-2,1.4-4.2,1.7s-4.4,1-4.4,4c0,2.7,1.9,3.9,4.4,3.9
		c1.6,0,3.2-0.4,4.4-1.6c0,0.4,0.1,0.9,0.3,1.3h3.6c-0.3-0.5-0.5-1.7-0.5-2.9v-6.7c0-3.1-3.1-3.7-5.7-3.7c-2.9,0-5.9,1-6.1,4.4
		L79.5,30.9L79.5,30.9z"/>
	<path class="st1" d="M88.8,44.5h3.6v-6.2h0.1c0.9,1.3,2.3,1.9,3.9,1.9c3.8,0,5.7-3.2,5.7-6.7c0-3.7-1.8-7-5.9-7c-1.6,0-3,0.6-3.9,2
		h-0.1V27h-3.4V44.5L88.8,44.5z M95.4,37.6c-2.3,0-3.1-2-3.1-4.1s0.7-4.2,3.1-4.2c2.3,0,3.1,2.1,3.1,4.2
		C98.5,35.6,97.7,37.6,95.4,37.6L95.4,37.6z"/>
	<path class="st1" d="M111.1,34.9c0,0.8-0.1,2.9-2.9,2.9c-1.1,0-2.1-0.3-2.1-1.7c0-1.3,1-1.7,2.1-1.9c1.1-0.2,2.3-0.2,2.9-0.7V34.9
		L111.1,34.9z M106.4,30.9c0.1-1.4,1-1.9,2.3-1.9c1.3,0,2.3,0.2,2.3,1.7c0,1.5-2,1.4-4.2,1.7s-4.4,1-4.4,4c0,2.7,1.9,3.9,4.4,3.9
		c1.6,0,3.2-0.4,4.4-1.6c0,0.4,0.1,0.9,0.3,1.3h3.6c-0.3-0.5-0.5-1.7-0.5-2.9v-6.7c0-3.1-3.1-3.7-5.7-3.7c-2.9,0-5.9,1-6.1,4.4
		L106.4,30.9L106.4,30.9z"/>
	<path class="st1" d="M128.8,27h-3.4v1.7h-0.1c-0.9-1.5-2.1-2.1-3.9-2.1c-3.6,0-5.6,3.1-5.6,6.4c0,3.6,1.7,6.5,5.6,6.5
		c1.5,0,3.1-0.7,3.9-2h0.1v1.7c0,1.9-0.9,3.2-2.9,3.2c-1.3,0-2.3-0.5-2.7-1.8h-3.6c0.2,2.9,3.1,4.2,5.7,4.2c6,0,6.7-3.6,6.7-5.8
		L128.8,27L128.8,27z M122.3,36.9c-2.1,0-2.9-2-2.9-3.9c0-1.9,0.9-3.7,2.9-3.7c2.3,0,3,1.9,3,4C125.3,35.2,124.4,36.9,122.3,36.9
		L122.3,36.9z"/>
	<polygon points="129.7,34.6 137.3,34.6 137.3,31.5 129.7,31.5 	"/>
	<polygon points="138.2,39.9 150.9,39.9 150.9,36.6 142.2,36.6 142.2,22 138.2,22 	"/>
	<polygon points="151.7,39.9 155.2,39.9 155.2,22 151.7,22 	"/>
	<path class="st1" d="M156,33.5c0,4.1,2.6,6.8,6.7,6.8c4.1,0,6.7-2.7,6.7-6.8s-2.6-6.8-6.7-6.8C158.6,26.6,156,29.3,156,33.5
		L156,33.5z M159.6,33.5c0-2.1,0.7-4.2,3.1-4.2s3.1,2.1,3.1,4.2c0,2.1-0.7,4.2-3.1,4.2C160.3,37.6,159.6,35.5,159.6,33.5L159.6,33.5
		z"/>
	<path d="M181.9,27h-3.7l-2.8,8.8h-0.1l-2.9-8.8h-3.8l4.6,12.1c0.4,1,0,2.3-1.2,2.4c-0.7,0-1.4-0.1-2.1-0.1v2.9
		c0.7,0.1,1.5,0.1,2.1,0.1c2.5,0,3.7-0.9,4.4-2.9L181.9,27L181.9,27z"/>
	<path class="st1" d="M190.7,39.9h3.4V22h-3.6v6.5h-0.1l0,0c-0.8-1.3-2.3-1.9-3.9-1.9c-3.8,0-5.8,3.2-5.8,6.7c0,3.6,1.9,6.9,5.8,6.9
		c1.7,0,3.1-0.6,4-2h0.1L190.7,39.9L190.7,39.9z M190.7,33.4c0,2.1-0.7,4.2-3.1,4.2c-2.2,0-3.1-2.1-3.1-4.2c0-2.1,0.8-4.2,3.1-4.2
		C189.9,29.3,190.7,31.3,190.7,33.4L190.7,33.4z"/>
</g>
</svg>
